<?xml version="1.0" encoding="UTF-8"?>
<svg id="Layer_2" data-name="Layer 2" xmlns="http://www.w3.org/2000/svg" viewBox="0 0 113.17 113.23">
  <defs>
    <style>
      .cls-1 {
        fill: #000333;
      }

      .cls-1, .cls-2, .cls-3 {
        stroke-width: 0px;
      }

      .cls-2 {
        fill: #009476;
      }

      .cls-3 {
        fill: #049479;
      }
    </style>
  </defs>
  <g id="Layer_1-2" data-name="Layer 1">
    <g>
      <path class="cls-3" d="M18.28,96.23s8.44-15.96,38.31-15.96c0,0,26.4-1.87,38.3,15.96,0,0-14.55,16.21-38.3,15.49,0,0-23.58.84-38.31-15.49Z"/>
      <path class="cls-2" d="M18.28,17s8.55,15.96,38.3,15.96c0,0,29.27.87,38.31-15.96,0,0-15.03-16.02-38.31-15.49,0,0-22.76-1.17-38.3,15.49Z"/>
      <g>
        <path class="cls-1" d="M111.65,58.08H1.5c-.83,0-1.5-.67-1.5-1.5s.67-1.5,1.5-1.5h110.15c.83,0,1.5.67,1.5,1.5s-.67,1.5-1.5,1.5Z"/>
        <path class="cls-1" d="M56.58,58.14c-.83,0-1.5-.67-1.5-1.5V1.51c0-.83.67-1.5,1.5-1.5s1.5.67,1.5,1.5v55.13c0,.83-.67,1.5-1.5,1.5Z"/>
        <path class="cls-1" d="M111.67,58.23c-.83,0-1.5-.67-1.5-1.5,0-29.62-24.04-53.73-53.58-53.73S3,27.06,3,56.64c0,.83-.67,1.5-1.5,1.5s-1.5-.67-1.5-1.5C0,25.41,25.38,0,56.58,0s56.58,25.45,56.58,56.73c0,.83-.67,1.5-1.5,1.5Z"/>
        <path class="cls-1" d="M27.06,58.08c-.83,0-1.5-.67-1.5-1.5C25.56,12.78,55.72.23,56.03.11c.77-.31,1.64.07,1.95.84.31.77-.07,1.64-.84,1.95-.34.14-28.59,12.04-28.59,53.69,0,.83-.67,1.5-1.5,1.5Z"/>
        <path class="cls-1" d="M86.11,58.08c-.83,0-1.5-.67-1.5-1.5C84.61,14.89,56.31,3.01,56.03,2.89c-.77-.31-1.14-1.18-.83-1.95.31-.77,1.18-1.14,1.95-.84.3.12,30.47,12.67,30.47,56.48,0,.83-.67,1.5-1.5,1.5Z"/>
        <path class="cls-1" d="M56.58,34.46c-30.99,0-39.3-16.11-39.64-16.79-.37-.74-.06-1.64.68-2.01.74-.37,1.64-.06,2.01.68.07.15,7.96,15.12,36.95,15.12.83,0,1.5.67,1.5,1.5s-.67,1.5-1.5,1.5Z"/>
        <path class="cls-1" d="M56.59,34.46c-.83,0-1.5-.67-1.5-1.5s.67-1.5,1.5-1.5c29.15,0,36.88-14.97,36.95-15.12.37-.74,1.27-1.05,2.01-.68.74.37,1.05,1.27.68,2.01-.34.69-8.65,16.79-39.64,16.79Z"/>
        <path class="cls-1" d="M56.59,113.22c-.83,0-1.5-.67-1.5-1.5v-55.13c0-.83.67-1.5,1.5-1.5s1.5.67,1.5,1.5v55.13c0,.83-.67,1.5-1.5,1.5Z"/>
        <path class="cls-1" d="M56.58,113.23C25.38,113.23,0,87.84,0,56.64c0-.83.67-1.5,1.5-1.5s1.5.67,1.5,1.5c0,29.55,24.04,53.58,53.58,53.58s53.58-24.04,53.58-53.58c0-.83.67-1.5,1.5-1.5s1.5.67,1.5,1.5c0,31.2-25.38,56.58-56.58,56.58Z"/>
        <path class="cls-1" d="M56.58,113.23c-.6,0-1.16-.36-1.39-.94-.31-.77.07-1.64.84-1.95.34-.14,28.58-12.04,28.58-53.69,0-.83.67-1.5,1.5-1.5s1.5.67,1.5,1.5c0,43.8-30.17,56.36-30.47,56.48-.18.07-.37.11-.56.11Z"/>
        <path class="cls-1" d="M56.58,113.23c-.19,0-.37-.03-.56-.11-.3-.12-30.47-12.67-30.47-56.48,0-.83.67-1.5,1.5-1.5s1.5.67,1.5,1.5c0,41.69,28.3,53.58,28.59,53.69.77.31,1.14,1.18.83,1.95-.23.59-.8.94-1.39.94Z"/>
        <path class="cls-1" d="M94.89,97.73c-.55,0-1.08-.3-1.34-.83-.1-.21-8.02-15.12-36.95-15.12-.83,0-1.5-.67-1.5-1.5s.67-1.5,1.5-1.5c30.99,0,39.3,16.11,39.64,16.79.37.74.06,1.64-.68,2.01-.21.11-.44.16-.66.16Z"/>
        <path class="cls-1" d="M18.28,97.73c-.22,0-.45-.05-.66-.16-.74-.37-1.05-1.27-.68-2.01.34-.69,8.65-16.79,39.64-16.79.83,0,1.5.67,1.5,1.5s-.67,1.5-1.5,1.5c-29.15,0-36.88,14.97-36.95,15.12-.26.53-.79.84-1.35.84Z"/>
      </g>
    </g>
  </g>
</svg>