<?xml version="1.0" encoding="UTF-8"?>
<svg id="Layer_2" data-name="Layer 2" xmlns="http://www.w3.org/2000/svg" viewBox="0 0 116.69 80.64">
  <defs>
    <style>
      .cls-1 {
        fill: #344154;
      }

      .cls-1, .cls-2 {
        stroke-width: 0px;
      }

      .cls-2 {
        fill: #049479;
      }
    </style>
  </defs>
  <g id="Layer_1-2" data-name="Layer 1">
    <g>
      <g>
        <rect class="cls-2" x="15.3" y="18.37" width="32.6" height="16.19"/>
        <path class="cls-1" d="M47.9,43.5H15.3c-.83,0-1.5-.67-1.5-1.5s.67-1.5,1.5-1.5h32.6c.83,0,1.5.67,1.5,1.5s-.67,1.5-1.5,1.5Z"/>
        <path class="cls-1" d="M47.9,52.03H15.3c-.83,0-1.5-.67-1.5-1.5s.67-1.5,1.5-1.5h32.6c.83,0,1.5.67,1.5,1.5s-.67,1.5-1.5,1.5Z"/>
        <path class="cls-1" d="M47.9,60.56H15.3c-.83,0-1.5-.67-1.5-1.5s.67-1.5,1.5-1.5h32.6c.83,0,1.5.67,1.5,1.5s-.67,1.5-1.5,1.5Z"/>
      </g>
      <path class="cls-1" d="M111.39,80.64H5.31c-2.93,0-5.31-2.38-5.31-5.31V9.63C0,4.31,4.31,0,9.63,0h97.44c5.32,0,9.63,4.31,9.63,9.63v65.71c0,2.93-2.38,5.31-5.31,5.31ZM6.81,77.64h103.08c2.1,0,3.81-1.71,3.81-3.81V9.63c0-3.66-2.97-6.63-6.63-6.63H9.63c-3.66,0-6.63,2.97-6.63,6.63v64.21c0,2.1,1.71,3.81,3.81,3.81Z"/>
      <g>
        <path class="cls-2" d="M90.02,38.2c-.18-.87-.75-1.53-1.46-1.68l-3.31-.72s-1.82,1.73-3.94,2.02c-2.12-.29-3.94-2.02-3.94-2.02l-3.31.72c-.71.15-1.28.81-1.46,1.68l-.72,3.44h18.87l-.72-3.44Z"/>
        <path class="cls-2" d="M85.49,30.58c0,2.5-1.87,4.53-4.18,4.53s-4.18-2.03-4.18-4.53,1.87-4.53,4.18-4.53,4.18,2.03,4.18,4.53Z"/>
        <path class="cls-1" d="M94.03,44.59h-25.44c-.83,0-1.5-.67-1.5-1.5v-25.44c0-.83.67-1.5,1.5-1.5h25.44c.83,0,1.5.67,1.5,1.5v25.44c0,.83-.67,1.5-1.5,1.5ZM70.09,41.59h22.44v-22.44h-22.44v22.44Z"/>
      </g>
    </g>
  </g>
</svg>